<mxfile host="app.diagrams.net" modified="2023-04-04T04:14:56.601Z" agent="Mozilla/5.0 (Windows NT 10.0; Win64; x64) AppleWebKit/537.36 (KHTML, like Gecko) Chrome/111.0.0.0 Safari/537.36" etag="aCqGepnzg0DbJz-xceYL" version="21.1.4" type="device">
  <diagram name="Страница 1" id="cWMab4_WhD69aoA7Umjs">
    <mxGraphModel dx="1434" dy="796" grid="1" gridSize="10" guides="1" tooltips="1" connect="1" arrows="1" fold="1" page="1" pageScale="1" pageWidth="827" pageHeight="1169" math="0" shadow="0">
      <root>
        <mxCell id="0" />
        <mxCell id="1" parent="0" />
        <mxCell id="M5G4DCLzxQh5yjEeWqoG-17" style="rounded=0;orthogonalLoop=1;jettySize=auto;html=1;exitX=0.5;exitY=0.5;exitDx=0;exitDy=0;exitPerimeter=0;entryX=0;entryY=0.5;entryDx=0;entryDy=0;endArrow=none;endFill=0;" edge="1" parent="1" source="M5G4DCLzxQh5yjEeWqoG-1" target="M5G4DCLzxQh5yjEeWqoG-5">
          <mxGeometry relative="1" as="geometry" />
        </mxCell>
        <mxCell id="M5G4DCLzxQh5yjEeWqoG-18" style="rounded=0;orthogonalLoop=1;jettySize=auto;html=1;exitX=0.5;exitY=0.5;exitDx=0;exitDy=0;exitPerimeter=0;entryX=0;entryY=0.5;entryDx=0;entryDy=0;endArrow=none;endFill=0;" edge="1" parent="1" source="M5G4DCLzxQh5yjEeWqoG-1" target="M5G4DCLzxQh5yjEeWqoG-6">
          <mxGeometry relative="1" as="geometry" />
        </mxCell>
        <mxCell id="M5G4DCLzxQh5yjEeWqoG-1" value="Администратор" style="shape=umlActor;verticalLabelPosition=bottom;verticalAlign=top;html=1;outlineConnect=0;" vertex="1" parent="1">
          <mxGeometry x="80" y="300" width="30" height="60" as="geometry" />
        </mxCell>
        <mxCell id="M5G4DCLzxQh5yjEeWqoG-20" style="rounded=0;orthogonalLoop=1;jettySize=auto;html=1;exitX=0.5;exitY=0.5;exitDx=0;exitDy=0;exitPerimeter=0;entryX=0;entryY=0.5;entryDx=0;entryDy=0;endArrow=none;endFill=0;" edge="1" parent="1" source="M5G4DCLzxQh5yjEeWqoG-2" target="M5G4DCLzxQh5yjEeWqoG-7">
          <mxGeometry relative="1" as="geometry" />
        </mxCell>
        <mxCell id="M5G4DCLzxQh5yjEeWqoG-2" value="Кассир" style="shape=umlActor;verticalLabelPosition=bottom;verticalAlign=top;html=1;outlineConnect=0;" vertex="1" parent="1">
          <mxGeometry x="80" y="510" width="30" height="60" as="geometry" />
        </mxCell>
        <mxCell id="M5G4DCLzxQh5yjEeWqoG-21" style="rounded=0;orthogonalLoop=1;jettySize=auto;html=1;exitX=0.5;exitY=0.5;exitDx=0;exitDy=0;exitPerimeter=0;endArrow=none;endFill=0;" edge="1" parent="1" source="M5G4DCLzxQh5yjEeWqoG-3" target="M5G4DCLzxQh5yjEeWqoG-8">
          <mxGeometry relative="1" as="geometry" />
        </mxCell>
        <mxCell id="M5G4DCLzxQh5yjEeWqoG-22" style="rounded=0;orthogonalLoop=1;jettySize=auto;html=1;exitX=0.5;exitY=0.5;exitDx=0;exitDy=0;exitPerimeter=0;entryX=1;entryY=0.5;entryDx=0;entryDy=0;endArrow=none;endFill=0;" edge="1" parent="1" source="M5G4DCLzxQh5yjEeWqoG-3" target="M5G4DCLzxQh5yjEeWqoG-10">
          <mxGeometry relative="1" as="geometry" />
        </mxCell>
        <mxCell id="M5G4DCLzxQh5yjEeWqoG-23" style="rounded=0;orthogonalLoop=1;jettySize=auto;html=1;exitX=0.5;exitY=0.5;exitDx=0;exitDy=0;exitPerimeter=0;entryX=1;entryY=0;entryDx=0;entryDy=0;endArrow=none;endFill=0;" edge="1" parent="1" source="M5G4DCLzxQh5yjEeWqoG-3" target="M5G4DCLzxQh5yjEeWqoG-12">
          <mxGeometry relative="1" as="geometry" />
        </mxCell>
        <mxCell id="M5G4DCLzxQh5yjEeWqoG-24" style="rounded=0;orthogonalLoop=1;jettySize=auto;html=1;exitX=0.5;exitY=0.5;exitDx=0;exitDy=0;exitPerimeter=0;entryX=1;entryY=0;entryDx=0;entryDy=0;endArrow=none;endFill=0;" edge="1" parent="1" source="M5G4DCLzxQh5yjEeWqoG-3" target="M5G4DCLzxQh5yjEeWqoG-11">
          <mxGeometry relative="1" as="geometry" />
        </mxCell>
        <mxCell id="M5G4DCLzxQh5yjEeWqoG-3" value="Клиент" style="shape=umlActor;verticalLabelPosition=bottom;verticalAlign=top;html=1;outlineConnect=0;" vertex="1" parent="1">
          <mxGeometry x="727" y="360" width="30" height="60" as="geometry" />
        </mxCell>
        <mxCell id="M5G4DCLzxQh5yjEeWqoG-5" value="Планирование сеансов" style="ellipse;whiteSpace=wrap;html=1;" vertex="1" parent="1">
          <mxGeometry x="260" y="230" width="120" height="80" as="geometry" />
        </mxCell>
        <mxCell id="M5G4DCLzxQh5yjEeWqoG-6" value="Запрос финансового отчёта" style="ellipse;whiteSpace=wrap;html=1;" vertex="1" parent="1">
          <mxGeometry x="260" y="330" width="120" height="80" as="geometry" />
        </mxCell>
        <mxCell id="M5G4DCLzxQh5yjEeWqoG-29" style="rounded=0;orthogonalLoop=1;jettySize=auto;html=1;exitX=1;exitY=1;exitDx=0;exitDy=0;entryX=0.5;entryY=0;entryDx=0;entryDy=0;dashed=1;" edge="1" parent="1" source="M5G4DCLzxQh5yjEeWqoG-7" target="M5G4DCLzxQh5yjEeWqoG-25">
          <mxGeometry relative="1" as="geometry" />
        </mxCell>
        <mxCell id="M5G4DCLzxQh5yjEeWqoG-30" style="rounded=0;orthogonalLoop=1;jettySize=auto;html=1;exitX=1;exitY=1;exitDx=0;exitDy=0;entryX=0;entryY=0;entryDx=0;entryDy=0;dashed=1;" edge="1" parent="1" source="M5G4DCLzxQh5yjEeWqoG-7" target="M5G4DCLzxQh5yjEeWqoG-13">
          <mxGeometry relative="1" as="geometry" />
        </mxCell>
        <mxCell id="M5G4DCLzxQh5yjEeWqoG-31" style="rounded=0;orthogonalLoop=1;jettySize=auto;html=1;exitX=1;exitY=1;exitDx=0;exitDy=0;dashed=1;" edge="1" parent="1" source="M5G4DCLzxQh5yjEeWqoG-7" target="M5G4DCLzxQh5yjEeWqoG-27">
          <mxGeometry relative="1" as="geometry" />
        </mxCell>
        <mxCell id="M5G4DCLzxQh5yjEeWqoG-7" value="Продажа билетов за кассой" style="ellipse;whiteSpace=wrap;html=1;" vertex="1" parent="1">
          <mxGeometry x="186" y="510" width="120" height="80" as="geometry" />
        </mxCell>
        <mxCell id="M5G4DCLzxQh5yjEeWqoG-8" value="Регистрация на сайте" style="ellipse;whiteSpace=wrap;html=1;" vertex="1" parent="1">
          <mxGeometry x="460" y="220" width="120" height="80" as="geometry" />
        </mxCell>
        <mxCell id="M5G4DCLzxQh5yjEeWqoG-10" value="Авторизация на сайте" style="ellipse;whiteSpace=wrap;html=1;" vertex="1" parent="1">
          <mxGeometry x="460" y="330" width="120" height="80" as="geometry" />
        </mxCell>
        <mxCell id="M5G4DCLzxQh5yjEeWqoG-35" style="rounded=0;orthogonalLoop=1;jettySize=auto;html=1;exitX=0;exitY=1;exitDx=0;exitDy=0;dashed=1;" edge="1" parent="1" source="M5G4DCLzxQh5yjEeWqoG-11" target="M5G4DCLzxQh5yjEeWqoG-25">
          <mxGeometry relative="1" as="geometry" />
        </mxCell>
        <mxCell id="M5G4DCLzxQh5yjEeWqoG-36" style="rounded=0;orthogonalLoop=1;jettySize=auto;html=1;exitX=0;exitY=1;exitDx=0;exitDy=0;entryX=1;entryY=0;entryDx=0;entryDy=0;dashed=1;" edge="1" parent="1" source="M5G4DCLzxQh5yjEeWqoG-11" target="M5G4DCLzxQh5yjEeWqoG-13">
          <mxGeometry relative="1" as="geometry" />
        </mxCell>
        <mxCell id="M5G4DCLzxQh5yjEeWqoG-11" value="Бронирование билета" style="ellipse;whiteSpace=wrap;html=1;" vertex="1" parent="1">
          <mxGeometry x="536" y="510" width="120" height="80" as="geometry" />
        </mxCell>
        <mxCell id="M5G4DCLzxQh5yjEeWqoG-32" style="rounded=0;orthogonalLoop=1;jettySize=auto;html=1;exitX=0.5;exitY=1;exitDx=0;exitDy=0;entryX=0.5;entryY=0;entryDx=0;entryDy=0;dashed=1;" edge="1" parent="1" source="M5G4DCLzxQh5yjEeWqoG-12" target="M5G4DCLzxQh5yjEeWqoG-25">
          <mxGeometry relative="1" as="geometry" />
        </mxCell>
        <mxCell id="M5G4DCLzxQh5yjEeWqoG-33" style="rounded=0;orthogonalLoop=1;jettySize=auto;html=1;exitX=0.5;exitY=1;exitDx=0;exitDy=0;dashed=1;entryX=0.5;entryY=0;entryDx=0;entryDy=0;" edge="1" parent="1" source="M5G4DCLzxQh5yjEeWqoG-12" target="M5G4DCLzxQh5yjEeWqoG-13">
          <mxGeometry relative="1" as="geometry">
            <mxPoint x="419.8571428571431" y="690" as="targetPoint" />
          </mxGeometry>
        </mxCell>
        <mxCell id="M5G4DCLzxQh5yjEeWqoG-34" style="rounded=0;orthogonalLoop=1;jettySize=auto;html=1;exitX=0.5;exitY=1;exitDx=0;exitDy=0;entryX=0.5;entryY=0;entryDx=0;entryDy=0;dashed=1;" edge="1" parent="1" source="M5G4DCLzxQh5yjEeWqoG-12" target="M5G4DCLzxQh5yjEeWqoG-27">
          <mxGeometry relative="1" as="geometry" />
        </mxCell>
        <mxCell id="M5G4DCLzxQh5yjEeWqoG-12" value="Покупка билета" style="ellipse;whiteSpace=wrap;html=1;" vertex="1" parent="1">
          <mxGeometry x="360" y="510" width="120" height="80" as="geometry" />
        </mxCell>
        <mxCell id="M5G4DCLzxQh5yjEeWqoG-13" value="Просмотр плана и заполненности зала" style="ellipse;whiteSpace=wrap;html=1;" vertex="1" parent="1">
          <mxGeometry x="360" y="695" width="120" height="80" as="geometry" />
        </mxCell>
        <mxCell id="M5G4DCLzxQh5yjEeWqoG-25" value="Выбор даты и времени для посещения" style="ellipse;whiteSpace=wrap;html=1;" vertex="1" parent="1">
          <mxGeometry x="196" y="695" width="120" height="80" as="geometry" />
        </mxCell>
        <mxCell id="M5G4DCLzxQh5yjEeWqoG-27" value="Оплата&amp;nbsp;" style="ellipse;whiteSpace=wrap;html=1;" vertex="1" parent="1">
          <mxGeometry x="536" y="695" width="120" height="80" as="geometry" />
        </mxCell>
        <mxCell id="M5G4DCLzxQh5yjEeWqoG-39" value="" style="rounded=0;whiteSpace=wrap;html=1;fillStyle=dashed;fillColor=none;" vertex="1" parent="1">
          <mxGeometry x="160" y="130" width="527" height="790" as="geometry" />
        </mxCell>
        <mxCell id="M5G4DCLzxQh5yjEeWqoG-40" value="&amp;nbsp; &amp;nbsp; &amp;nbsp;&lt;span class=&quot;a0&quot;&gt;&lt;span style=&quot;font-size:12.0pt;mso-bidi-font-size:10.0pt;mso-fareast-font-family:Calibri;&lt;br/&gt;mso-bidi-font-family:Calibri;mso-ansi-language:RU;mso-fareast-language:RU;&lt;br/&gt;mso-bidi-language:AR-SA&quot;&gt;Информационная система продажи билетов&lt;/span&gt;&lt;/span&gt;" style="rounded=0;whiteSpace=wrap;html=1;" vertex="1" parent="1">
          <mxGeometry x="240" y="141" width="360" height="40" as="geometry" />
        </mxCell>
        <mxCell id="M5G4DCLzxQh5yjEeWqoG-46" style="rounded=0;orthogonalLoop=1;jettySize=auto;html=1;exitX=0.5;exitY=0;exitDx=0;exitDy=0;entryX=0.5;entryY=1;entryDx=0;entryDy=0;" edge="1" parent="1" source="M5G4DCLzxQh5yjEeWqoG-42" target="M5G4DCLzxQh5yjEeWqoG-27">
          <mxGeometry relative="1" as="geometry" />
        </mxCell>
        <mxCell id="M5G4DCLzxQh5yjEeWqoG-42" value="Оплата картой" style="ellipse;whiteSpace=wrap;html=1;" vertex="1" parent="1">
          <mxGeometry x="536" y="824" width="120" height="80" as="geometry" />
        </mxCell>
      </root>
    </mxGraphModel>
  </diagram>
</mxfile>
